<?xml version="1.0" encoding="UTF-8"?>
<svg id="Layer_2" data-name="Layer 2" xmlns="http://www.w3.org/2000/svg" viewBox="0 0 122.85 100.88">
  <defs>
    <style>
      .cls-1 {
        fill: #7fc9ea;
        stroke-width: 0px;
      }
    </style>
  </defs>
  <g id="Objects">
    <g>
      <path class="cls-1" d="m102.7,24.82c-.11-5.36-4.75-9.73-10.34-9.73-.08,0-.16,0-.24,0-.01,0-.03,0-.04,0l-2.26.09-.48-2.03c-1.05-4.48-5.3-7.73-10.09-7.73-.08,0-.16,0-.24,0-1.63.03-3.19.43-4.64,1.16l-2.24,1.14-1.16-2.23C69.22,2.11,65.67,0,61.72,0c-.08,0-.16,0-.24,0h-.05s-.05,0-.05,0c-4.05-.09-7.7,2.04-9.5,5.51l-1.16,2.23-2.24-1.14c-1.44-.74-3-1.13-4.64-1.16-.08,0-.16,0-.24,0-4.79,0-9.04,3.25-10.09,7.73l-.48,2.02-2.33-.09c-.06,0-.14,0-.21,0-5.59,0-10.23,4.36-10.34,9.73-.05,2.44.83,4.8,2.48,6.66l3.02,3.4c.28.31.68.5,1.1.5h.15c.22,0,2.19.07,2.54,2.35.02.14.05.34.09.6,2.35,16.23,5.71,27.8,8.11,34.66,4.45,12.73,12.19,27.9,23.78,27.9s19.32-15.17,23.77-27.89c2.4-6.85,5.75-18.43,8.11-34.67.04-.27.07-.47.09-.6.35-2.28,2.31-2.35,2.54-2.35h.15c.42,0,.82-.18,1.1-.5l3.02-3.4c1.65-1.86,2.53-4.22,2.48-6.66Z"/>
      <path class="cls-1" d="m22.75,35.3l-1.45.33c-4.93,1.12-14.31,6.41-19.93,16.4-2.11,3.76-1.51,8.15-.05,10.64,1.07,1.84,2.6,2.85,4.29,2.85,2.42,0,5.3-1.98,8.11-5.56,3.86-4.93,7.49-12.59,10.76-22.76.16-.5.04-1.06-.32-1.45-.36-.39-.9-.56-1.42-.44Z"/>
      <path class="cls-1" d="m121.47,52.03c-5.62-9.99-15-15.28-19.93-16.4l-1.45-.33c-.52-.12-1.06.05-1.42.44-.36.39-.48.94-.32,1.45,3.28,10.18,6.9,17.84,10.76,22.76,2.81,3.59,5.7,5.56,8.11,5.57h0c1.69,0,3.21-1.01,4.29-2.85,1.46-2.49,2.06-6.89-.05-10.64Z"/>
    </g>
  </g>
</svg>